
<svg xmlns="http://www.w3.org/2000/svg" version="1.1" xmlns:xlink="http://www.w3.org/1999/xlink" xmlns:svgjs="http://svgjs.com/svgjs" width="30" height="30" preserveAspectRatio="none" viewBox="0 0 30 30">
    <g mask="url(&quot;#SvgjsMask1023&quot;)" fill="none">
        <rect  width="30" height="30" x="0" y="0" fill="#98C78D" ></rect>
        <path d="M0,11.417C2.271,11.172,4.553,11.273,6.62,10.301C8.889,9.234,11.275,7.905,12.314,5.624C13.353,3.344,12.598,0.716,12.106,-1.741C11.638,-4.08,11.196,-6.551,9.534,-8.261C7.907,-9.935,5.496,-10.478,3.201,-10.902C1.087,-11.293,-0.987,-10.923,-3.112,-10.598C-5.571,-10.222,-8.378,-10.53,-10.213,-8.85C-12.083,-7.139,-12.366,-4.339,-12.698,-1.826C-13.027,0.663,-12.992,3.18,-12.115,5.533C-11.194,8.004,-9.979,10.685,-7.607,11.837C-5.275,12.969,-2.577,11.695,0,11.417" fill="#98C78D"></path>
        <path d="M30 43.987C32.591 43.82 33.859 40.755 35.814 39.047 37.437 37.629 39.245 36.544 40.513999999999996 34.802 42.032 32.719 44.012 30.579 43.859 28.007 43.705 25.41 41.829 23.107 39.729 21.57 37.815 20.169 35.281 20.346 32.933 20.009999999999998 30.929 19.724 28.989 19.430999999999997 26.990000000000002 19.749000000000002 24.756 20.105 22.371000000000002 20.413 20.717 21.956 18.997 23.56 18.320999999999998 25.948 17.867 28.256 17.394 30.66 16.959 33.264 18.058999999999997 35.453 19.147 37.619 21.71 38.421 23.682000000000002 39.83 25.775 41.326 27.432 44.153 30 43.987" fill="#98C78D"></path>
	<text id="_2" data-name="2" transform="translate(0 42)" fill="#fff" font-size="25" font-family="Jost-Medium, Jost" font-weight="500"><tspan x="30%" y="-18">2</tspan></text>    
</g>
    <defs>
        <mask id="SvgjsMask1023">
            <rect width="30" height="30" fill="#ffffff"></rect>
        </mask>
    </defs>
</svg>